<?xml version="1.0" encoding="UTF-8"?>
<svg xmlns="http://www.w3.org/2000/svg" width="1500" height="880" viewBox="0 0 1500 880">
<rect x="0.00" y="0.00" width="1500.00" height="880.00" fill="white" stroke="none" />
<text x="110.00" y="24.00" fill="#0b1f3a" font-family="DejaVu Sans, Arial, sans-serif" font-size="28" text-anchor="start" dominant-baseline="alphabetic">Anthropic threshold probabilities (core)</text>
<text x="110.00" y="60.00" fill="#333333" font-family="DejaVu Sans, Arial, sans-serif" font-size="18" text-anchor="start" dominant-baseline="alphabetic">Prediction-market threshold probabilities tied to an institutional private-market valuation reference.</text>
<line x1="110.00" y1="675.00" x2="1110.00" y2="675.00" stroke="#e6e6e6" stroke-width="1" />
<line x1="110.00" y1="532.50" x2="1110.00" y2="532.50" stroke="#e6e6e6" stroke-width="1" />
<line x1="110.00" y1="390.00" x2="1110.00" y2="390.00" stroke="#e6e6e6" stroke-width="1" />
<line x1="110.00" y1="247.50" x2="1110.00" y2="247.50" stroke="#e6e6e6" stroke-width="1" />
<line x1="110.00" y1="105.00" x2="1110.00" y2="105.00" stroke="#e6e6e6" stroke-width="1" />
<line x1="110.00" y1="105.00" x2="110.00" y2="675.00" stroke="#2e2e2e" stroke-width="2" />
<line x1="110.00" y1="675.00" x2="1110.00" y2="675.00" stroke="#2e2e2e" stroke-width="2" />
<text x="610.00" y="765.00" fill="#333333" font-family="DejaVu Sans, Arial, sans-serif" font-size="18" text-anchor="middle" dominant-baseline="alphabetic">Date (UTC)</text>
<text x="18.00" y="390.00" fill="#333333" font-family="DejaVu Sans, Arial, sans-serif" font-size="18" text-anchor="start" dominant-baseline="alphabetic">Probability</text>
<text x="98.00" y="675.00" fill="#666666" font-family="DejaVu Sans, Arial, sans-serif" font-size="13" text-anchor="end" dominant-baseline="alphabetic">0</text>
<text x="98.00" y="532.50" fill="#666666" font-family="DejaVu Sans, Arial, sans-serif" font-size="13" text-anchor="end" dominant-baseline="alphabetic">0.25</text>
<text x="98.00" y="390.00" fill="#666666" font-family="DejaVu Sans, Arial, sans-serif" font-size="13" text-anchor="end" dominant-baseline="alphabetic">0.5</text>
<text x="98.00" y="247.50" fill="#666666" font-family="DejaVu Sans, Arial, sans-serif" font-size="13" text-anchor="end" dominant-baseline="alphabetic">0.75</text>
<text x="98.00" y="105.00" fill="#666666" font-family="DejaVu Sans, Arial, sans-serif" font-size="13" text-anchor="end" dominant-baseline="alphabetic">1</text>
<text x="110.00" y="687.00" fill="#666666" font-family="DejaVu Sans, Arial, sans-serif" font-size="13" text-anchor="middle" dominant-baseline="alphabetic">2026-05-27</text>
<text x="1110.00" y="687.00" fill="#666666" font-family="DejaVu Sans, Arial, sans-serif" font-size="13" text-anchor="middle" dominant-baseline="alphabetic">2026-05-28</text>
<line x1="110.00" y1="107.28" x2="110.00" y2="672.72" stroke="#0b1f3a" stroke-width="3" />
<line x1="110.00" y1="672.72" x2="1110.00" y2="107.85" stroke="#0b1f3a" stroke-width="3" />
<line x1="1110.00" y1="107.85" x2="1110.00" y2="672.15" stroke="#0b1f3a" stroke-width="3" />
<circle cx="110.00" cy="107.28" r="3.50" fill="#0b1f3a" stroke="white" stroke-width="1" />
<circle cx="110.00" cy="672.72" r="3.50" fill="#0b1f3a" stroke="white" stroke-width="1" />
<circle cx="1110.00" cy="107.85" r="3.50" fill="#0b1f3a" stroke="white" stroke-width="1" />
<circle cx="1110.00" cy="672.15" r="3.50" fill="#0b1f3a" stroke="white" stroke-width="1" />
<line x1="110.00" y1="142.05" x2="110.00" y2="637.95" stroke="#3f4b5d" stroke-width="3" />
<line x1="110.00" y1="637.95" x2="1110.00" y2="142.05" stroke="#3f4b5d" stroke-width="3" />
<line x1="1110.00" y1="142.05" x2="1110.00" y2="637.95" stroke="#3f4b5d" stroke-width="3" />
<circle cx="110.00" cy="142.05" r="3.50" fill="#3f4b5d" stroke="white" stroke-width="1" />
<circle cx="110.00" cy="637.95" r="3.50" fill="#3f4b5d" stroke="white" stroke-width="1" />
<circle cx="1110.00" cy="142.05" r="3.50" fill="#3f4b5d" stroke="white" stroke-width="1" />
<circle cx="1110.00" cy="637.95" r="3.50" fill="#3f4b5d" stroke="white" stroke-width="1" />
<line x1="110.00" y1="150.60" x2="110.00" y2="629.40" stroke="#576170" stroke-width="3" />
<line x1="110.00" y1="629.40" x2="1110.00" y2="150.60" stroke="#576170" stroke-width="3" />
<line x1="1110.00" y1="150.60" x2="1110.00" y2="629.40" stroke="#576170" stroke-width="3" />
<circle cx="110.00" cy="150.60" r="3.50" fill="#576170" stroke="white" stroke-width="1" />
<circle cx="110.00" cy="629.40" r="3.50" fill="#576170" stroke="white" stroke-width="1" />
<circle cx="1110.00" cy="150.60" r="3.50" fill="#576170" stroke="white" stroke-width="1" />
<circle cx="1110.00" cy="629.40" r="3.50" fill="#576170" stroke="white" stroke-width="1" />
<line x1="110.00" y1="662.17" x2="110.00" y2="117.82" stroke="#6f7886" stroke-width="3" />
<line x1="110.00" y1="117.82" x2="1110.00" y2="656.76" stroke="#6f7886" stroke-width="3" />
<line x1="1110.00" y1="656.76" x2="1110.00" y2="123.24" stroke="#6f7886" stroke-width="3" />
<circle cx="110.00" cy="662.17" r="3.50" fill="#6f7886" stroke="white" stroke-width="1" />
<circle cx="110.00" cy="117.82" r="3.50" fill="#6f7886" stroke="white" stroke-width="1" />
<circle cx="1110.00" cy="656.76" r="3.50" fill="#6f7886" stroke="white" stroke-width="1" />
<circle cx="1110.00" cy="123.24" r="3.50" fill="#6f7886" stroke="white" stroke-width="1" />
<line x1="110.00" y1="238.95" x2="110.00" y2="541.05" stroke="#9ea6af" stroke-width="3" />
<line x1="110.00" y1="541.05" x2="1110.00" y2="233.25" stroke="#9ea6af" stroke-width="3" />
<line x1="1110.00" y1="233.25" x2="1110.00" y2="546.75" stroke="#9ea6af" stroke-width="3" />
<circle cx="110.00" cy="238.95" r="3.50" fill="#9ea6af" stroke="white" stroke-width="1" />
<circle cx="110.00" cy="541.05" r="3.50" fill="#9ea6af" stroke="white" stroke-width="1" />
<circle cx="1110.00" cy="233.25" r="3.50" fill="#9ea6af" stroke="white" stroke-width="1" />
<circle cx="1110.00" cy="546.75" r="3.50" fill="#9ea6af" stroke="white" stroke-width="1" />
<line x1="110.00" y1="113.83" x2="110.00" y2="666.16" stroke="#ced3d8" stroke-width="3" />
<line x1="110.00" y1="666.16" x2="1110.00" y2="115.54" stroke="#ced3d8" stroke-width="3" />
<line x1="1110.00" y1="115.54" x2="1110.00" y2="664.46" stroke="#ced3d8" stroke-width="3" />
<circle cx="110.00" cy="113.83" r="3.50" fill="#ced3d8" stroke="white" stroke-width="1" />
<circle cx="110.00" cy="666.16" r="3.50" fill="#ced3d8" stroke="white" stroke-width="1" />
<circle cx="1110.00" cy="115.54" r="3.50" fill="#ced3d8" stroke="white" stroke-width="1" />
<circle cx="1110.00" cy="664.46" r="3.50" fill="#ced3d8" stroke="white" stroke-width="1" />
<text x="1160.00" y="105.00" fill="#0b1f3a" font-family="DejaVu Sans, Arial, sans-serif" font-size="18" text-anchor="start" dominant-baseline="alphabetic">Series</text>
<line x1="1160.00" y1="155.00" x2="1190.00" y2="155.00" stroke="#0b1f3a" stroke-width="4" />
<circle cx="1175.00" cy="155.00" r="4.00" fill="#0b1f3a" stroke="white" stroke-width="1" />
<text x="1202.00" y="155.00" fill="#333333" font-family="DejaVu Sans, Arial, sans-serif" font-size="15" text-anchor="start" dominant-baseline="alphabetic">LOW 750B</text>
<line x1="1160.00" y1="185.00" x2="1190.00" y2="185.00" stroke="#3f4b5d" stroke-width="4" />
<circle cx="1175.00" cy="185.00" r="4.00" fill="#3f4b5d" stroke="white" stroke-width="1" />
<text x="1202.00" y="185.00" fill="#333333" font-family="DejaVu Sans, Arial, sans-serif" font-size="15" text-anchor="start" dominant-baseline="alphabetic">LOW 850B</text>
<line x1="1160.00" y1="215.00" x2="1190.00" y2="215.00" stroke="#576170" stroke-width="4" />
<circle cx="1175.00" cy="215.00" r="4.00" fill="#576170" stroke="white" stroke-width="1" />
<text x="1202.00" y="215.00" fill="#333333" font-family="DejaVu Sans, Arial, sans-serif" font-size="15" text-anchor="start" dominant-baseline="alphabetic">LOW 875B</text>
<line x1="1160.00" y1="245.00" x2="1190.00" y2="245.00" stroke="#6f7886" stroke-width="4" />
<circle cx="1175.00" cy="245.00" r="4.00" fill="#6f7886" stroke="white" stroke-width="1" />
<text x="1202.00" y="245.00" fill="#333333" font-family="DejaVu Sans, Arial, sans-serif" font-size="15" text-anchor="start" dominant-baseline="alphabetic">HIGH 1.0T</text>
<line x1="1160.00" y1="275.00" x2="1190.00" y2="275.00" stroke="#9ea6af" stroke-width="4" />
<circle cx="1175.00" cy="275.00" r="4.00" fill="#9ea6af" stroke="white" stroke-width="1" />
<text x="1202.00" y="275.00" fill="#333333" font-family="DejaVu Sans, Arial, sans-serif" font-size="15" text-anchor="start" dominant-baseline="alphabetic">HIGH 1.25T</text>
<line x1="1160.00" y1="305.00" x2="1190.00" y2="305.00" stroke="#ced3d8" stroke-width="4" />
<circle cx="1175.00" cy="305.00" r="4.00" fill="#ced3d8" stroke="white" stroke-width="1" />
<text x="1202.00" y="305.00" fill="#333333" font-family="DejaVu Sans, Arial, sans-serif" font-size="15" text-anchor="start" dominant-baseline="alphabetic">HIGH 1.75T</text>
<rect x="110.00" y="785.00" width="1000.00" height="65.00" rx="8" ry="8" fill="white" stroke="#cccccc" stroke-width="1" />
<text x="124.00" y="798.00" fill="#333333" font-family="DejaVu Sans, Arial, sans-serif" font-size="15" text-anchor="start" dominant-baseline="alphabetic">Core subset of thresholds chosen for readability; the full chart retains all nine recovered bands.</text>
</svg>