<?xml version="1.0" encoding="UTF-8"?>
<svg xmlns="http://www.w3.org/2000/svg" width="1500" height="900" viewBox="0 0 1500 900">
<rect x="0.00" y="0.00" width="1500.00" height="900.00" fill="white" stroke="none" />
<text x="110.00" y="26.00" fill="#0b1f3a" font-family="DejaVu Sans, Arial, sans-serif" font-size="30" text-anchor="start" dominant-baseline="alphabetic">Fed January: daily last probability</text>
<text x="110.00" y="62.00" fill="#333333" font-family="DejaVu Sans, Arial, sans-serif" font-size="20" text-anchor="start" dominant-baseline="alphabetic">Probability</text>
<text x="610.00" y="868.00" fill="#333333" font-family="DejaVu Sans, Arial, sans-serif" font-size="20" text-anchor="middle" dominant-baseline="alphabetic">Date (UTC)</text>
<line x1="110.00" y1="675.00" x2="1110.00" y2="675.00" stroke="#e6e6e6" stroke-width="1" />
<line x1="110.00" y1="530.00" x2="1110.00" y2="530.00" stroke="#e6e6e6" stroke-width="1" />
<line x1="110.00" y1="385.00" x2="1110.00" y2="385.00" stroke="#e6e6e6" stroke-width="1" />
<line x1="110.00" y1="240.00" x2="1110.00" y2="240.00" stroke="#e6e6e6" stroke-width="1" />
<line x1="110.00" y1="95.00" x2="1110.00" y2="95.00" stroke="#e6e6e6" stroke-width="1" />
<line x1="110.00" y1="95.00" x2="110.00" y2="675.00" stroke="#2e2e2e" stroke-width="2" />
<line x1="110.00" y1="675.00" x2="1110.00" y2="675.00" stroke="#2e2e2e" stroke-width="2" />
<text x="96.00" y="675.00" fill="#666666" font-family="DejaVu Sans, Arial, sans-serif" font-size="15" text-anchor="end" dominant-baseline="alphabetic">0</text>
<text x="96.00" y="530.00" fill="#666666" font-family="DejaVu Sans, Arial, sans-serif" font-size="15" text-anchor="end" dominant-baseline="alphabetic">0.25</text>
<text x="96.00" y="385.00" fill="#666666" font-family="DejaVu Sans, Arial, sans-serif" font-size="15" text-anchor="end" dominant-baseline="alphabetic">0.5</text>
<text x="96.00" y="240.00" fill="#666666" font-family="DejaVu Sans, Arial, sans-serif" font-size="15" text-anchor="end" dominant-baseline="alphabetic">0.75</text>
<text x="96.00" y="95.00" fill="#666666" font-family="DejaVu Sans, Arial, sans-serif" font-size="15" text-anchor="end" dominant-baseline="alphabetic">1</text>
<text x="110.00" y="689.00" fill="#666666" font-family="DejaVu Sans, Arial, sans-serif" font-size="15" text-anchor="middle" dominant-baseline="alphabetic">2026-01-23</text>
<text x="360.00" y="689.00" fill="#666666" font-family="DejaVu Sans, Arial, sans-serif" font-size="15" text-anchor="middle" dominant-baseline="alphabetic">2026-01-24</text>
<text x="610.00" y="689.00" fill="#666666" font-family="DejaVu Sans, Arial, sans-serif" font-size="15" text-anchor="middle" dominant-baseline="alphabetic">2026-01-25</text>
<text x="860.00" y="689.00" fill="#666666" font-family="DejaVu Sans, Arial, sans-serif" font-size="15" text-anchor="middle" dominant-baseline="alphabetic">2026-01-26</text>
<text x="1110.00" y="689.00" fill="#666666" font-family="DejaVu Sans, Arial, sans-serif" font-size="15" text-anchor="middle" dominant-baseline="alphabetic">2026-01-28</text>
<line x1="510.00" y1="674.42" x2="710.00" y2="674.42" stroke="#0b1f3a" stroke-width="3" />
<line x1="710.00" y1="674.42" x2="910.00" y2="674.42" stroke="#0b1f3a" stroke-width="3" />
<line x1="910.00" y1="674.42" x2="1110.00" y2="674.42" stroke="#0b1f3a" stroke-width="3" />
<circle cx="510.00" cy="674.42" r="3.50" fill="#0b1f3a" stroke="white" stroke-width="1" />
<circle cx="710.00" cy="674.42" r="3.50" fill="#0b1f3a" stroke="white" stroke-width="1" />
<circle cx="910.00" cy="674.42" r="3.50" fill="#0b1f3a" stroke="white" stroke-width="1" />
<circle cx="1110.00" cy="674.42" r="3.50" fill="#0b1f3a" stroke="white" stroke-width="1" />
<line x1="910.00" y1="672.68" x2="1110.00" y2="674.42" stroke="#4c5563" stroke-width="3" />
<circle cx="910.00" cy="672.68" r="3.50" fill="#4c5563" stroke="white" stroke-width="1" />
<circle cx="1110.00" cy="674.42" r="3.50" fill="#4c5563" stroke="white" stroke-width="1" />
<circle cx="1110.00" cy="95.58" r="3.50" fill="#8a8f98" stroke="white" stroke-width="1" />
<line x1="110.00" y1="674.42" x2="310.00" y2="674.42" stroke="#b0b5bd" stroke-width="3" />
<line x1="310.00" y1="674.42" x2="510.00" y2="674.42" stroke="#b0b5bd" stroke-width="3" />
<line x1="510.00" y1="674.42" x2="710.00" y2="673.84" stroke="#b0b5bd" stroke-width="3" />
<line x1="710.00" y1="673.84" x2="910.00" y2="673.84" stroke="#b0b5bd" stroke-width="3" />
<line x1="910.00" y1="673.84" x2="1110.00" y2="674.42" stroke="#b0b5bd" stroke-width="3" />
<circle cx="110.00" cy="674.42" r="3.50" fill="#b0b5bd" stroke="white" stroke-width="1" />
<circle cx="310.00" cy="674.42" r="3.50" fill="#b0b5bd" stroke="white" stroke-width="1" />
<circle cx="510.00" cy="674.42" r="3.50" fill="#b0b5bd" stroke="white" stroke-width="1" />
<circle cx="710.00" cy="673.84" r="3.50" fill="#b0b5bd" stroke="white" stroke-width="1" />
<circle cx="910.00" cy="673.84" r="3.50" fill="#b0b5bd" stroke="white" stroke-width="1" />
<circle cx="1110.00" cy="674.42" r="3.50" fill="#b0b5bd" stroke="white" stroke-width="1" />
<text x="1160.00" y="95.00" fill="#0b1f3a" font-family="DejaVu Sans, Arial, sans-serif" font-size="20" text-anchor="start" dominant-baseline="alphabetic">Series</text>
<line x1="1160.00" y1="145.00" x2="1190.00" y2="145.00" stroke="#0b1f3a" stroke-width="4" />
<circle cx="1175.00" cy="145.00" r="4.00" fill="#0b1f3a" stroke="white" stroke-width="1" />
<text x="1202.00" y="145.00" fill="#333333" font-family="DejaVu Sans, Arial, sans-serif" font-size="17" text-anchor="start" dominant-baseline="alphabetic">50+ bps cut</text>
<line x1="1160.00" y1="175.00" x2="1190.00" y2="175.00" stroke="#4c5563" stroke-width="4" />
<circle cx="1175.00" cy="175.00" r="4.00" fill="#4c5563" stroke="white" stroke-width="1" />
<text x="1202.00" y="175.00" fill="#333333" font-family="DejaVu Sans, Arial, sans-serif" font-size="17" text-anchor="start" dominant-baseline="alphabetic">25 bps cut</text>
<line x1="1160.00" y1="205.00" x2="1190.00" y2="205.00" stroke="#8a8f98" stroke-width="4" />
<circle cx="1175.00" cy="205.00" r="4.00" fill="#8a8f98" stroke="white" stroke-width="1" />
<text x="1202.00" y="205.00" fill="#333333" font-family="DejaVu Sans, Arial, sans-serif" font-size="17" text-anchor="start" dominant-baseline="alphabetic">No change</text>
<line x1="1160.00" y1="235.00" x2="1190.00" y2="235.00" stroke="#b0b5bd" stroke-width="4" />
<circle cx="1175.00" cy="235.00" r="4.00" fill="#b0b5bd" stroke="white" stroke-width="1" />
<text x="1202.00" y="235.00" fill="#333333" font-family="DejaVu Sans, Arial, sans-serif" font-size="17" text-anchor="start" dominant-baseline="alphabetic">25+ bps hike</text>
<rect x="110.00" y="705.00" width="1000.00" height="155.00" rx="8" ry="8" fill="white" stroke="#cccccc" stroke-width="1" />
<text x="124.00" y="717.00" fill="#333333" font-family="DejaVu Sans, Arial, sans-serif" font-size="17" text-anchor="start" dominant-baseline="alphabetic">Trade-based fallback series; no CME FedWatch comparator included yet.</text>
</svg>