<?xml version="1.0" encoding="UTF-8"?>
<svg xmlns="http://www.w3.org/2000/svg" width="1280" height="680" viewBox="0 0 1280 680">
<rect x="0.00" y="0.00" width="1280.00" height="680.00" fill="white" stroke="none" />
<text x="20.00" y="24.00" fill="#0B1F3A" font-family="DejaVu Sans, Arial, sans-serif" font-size="28" text-anchor="start" dominant-baseline="alphabetic">Realized policy-rate context</text>
<text x="20.00" y="58.00" fill="#333333" font-family="DejaVu Sans, Arial, sans-serif" font-size="18" text-anchor="start" dominant-baseline="alphabetic">Official target range and accessible NY Fed EFFR rows</text>
<line x1="120.00" y1="500.00" x2="1080.00" y2="500.00" stroke="#e6e6e6" stroke-width="1" />
<line x1="120.00" y1="400.00" x2="1080.00" y2="400.00" stroke="#e6e6e6" stroke-width="1" />
<line x1="120.00" y1="300.00" x2="1080.00" y2="300.00" stroke="#e6e6e6" stroke-width="1" />
<line x1="120.00" y1="200.00" x2="1080.00" y2="200.00" stroke="#e6e6e6" stroke-width="1" />
<line x1="120.00" y1="100.00" x2="1080.00" y2="100.00" stroke="#e6e6e6" stroke-width="1" />
<line x1="120.00" y1="100.00" x2="120.00" y2="500.00" stroke="#2e2e2e" stroke-width="2" />
<line x1="120.00" y1="500.00" x2="1080.00" y2="500.00" stroke="#2e2e2e" stroke-width="2" />
<text x="108.00" y="450.00" fill="#666666" font-family="DejaVu Sans, Arial, sans-serif" font-size="13" text-anchor="end" dominant-baseline="alphabetic">3.50</text>
<text x="108.00" y="350.00" fill="#666666" font-family="DejaVu Sans, Arial, sans-serif" font-size="13" text-anchor="end" dominant-baseline="alphabetic">3.60</text>
<text x="108.00" y="250.00" fill="#666666" font-family="DejaVu Sans, Arial, sans-serif" font-size="13" text-anchor="end" dominant-baseline="alphabetic">3.70</text>
<text x="108.00" y="150.00" fill="#666666" font-family="DejaVu Sans, Arial, sans-serif" font-size="13" text-anchor="end" dominant-baseline="alphabetic">3.80</text>
<text x="120.00" y="512.00" fill="#666666" font-family="DejaVu Sans, Arial, sans-serif" font-size="13" text-anchor="middle" dominant-baseline="alphabetic">2025-12-10</text>
<text x="435.43" y="512.00" fill="#666666" font-family="DejaVu Sans, Arial, sans-serif" font-size="13" text-anchor="middle" dominant-baseline="alphabetic">2026-01-25</text>
<text x="757.71" y="512.00" fill="#666666" font-family="DejaVu Sans, Arial, sans-serif" font-size="13" text-anchor="middle" dominant-baseline="alphabetic">2026-03-13</text>
<text x="1080.00" y="512.00" fill="#666666" font-family="DejaVu Sans, Arial, sans-serif" font-size="13" text-anchor="middle" dominant-baseline="alphabetic">2026-04-29</text>
<rect x="120.00" y="200.00" width="336.00" height="250.00" fill="#D9DEE6" stroke="#C7CDD6" stroke-width="1" />
<text x="124.00" y="192.00" fill="#23324A" font-family="DejaVu Sans, Arial, sans-serif" font-size="13" text-anchor="start" dominant-baseline="alphabetic">2025-12 target 3.50-3.75</text>
<rect x="456.00" y="200.00" width="336.00" height="250.00" fill="#D9DEE6" stroke="#C7CDD6" stroke-width="1" />
<text x="460.00" y="192.00" fill="#23324A" font-family="DejaVu Sans, Arial, sans-serif" font-size="13" text-anchor="start" dominant-baseline="alphabetic">2026-01 target 3.50-3.75</text>
<rect x="792.00" y="200.00" width="288.00" height="250.00" fill="#D9DEE6" stroke="#C7CDD6" stroke-width="1" />
<text x="796.00" y="192.00" fill="#23324A" font-family="DejaVu Sans, Arial, sans-serif" font-size="13" text-anchor="start" dominant-baseline="alphabetic">2026-03 target 3.50-3.75</text>
<rect x="1080.00" y="200.00" width="0.00" height="250.00" fill="#D9DEE6" stroke="#C7CDD6" stroke-width="1" />
<text x="1084.00" y="192.00" fill="#23324A" font-family="DejaVu Sans, Arial, sans-serif" font-size="13" text-anchor="start" dominant-baseline="alphabetic">2026-04 target 3.50-3.75</text>
<line x1="318.86" y1="310.00" x2="325.71" y2="310.00" stroke="#0B1F3A" stroke-width="3" />
<line x1="325.71" y1="310.00" x2="346.29" y2="310.00" stroke="#0B1F3A" stroke-width="3" />
<line x1="346.29" y1="310.00" x2="353.14" y2="310.00" stroke="#0B1F3A" stroke-width="3" />
<line x1="353.14" y1="310.00" x2="360.00" y2="310.00" stroke="#0B1F3A" stroke-width="3" />
<line x1="360.00" y1="310.00" x2="366.86" y2="310.00" stroke="#0B1F3A" stroke-width="3" />
<line x1="366.86" y1="310.00" x2="373.71" y2="310.00" stroke="#0B1F3A" stroke-width="3" />
<line x1="373.71" y1="310.00" x2="401.14" y2="310.00" stroke="#0B1F3A" stroke-width="3" />
<line x1="401.14" y1="310.00" x2="408.00" y2="310.00" stroke="#0B1F3A" stroke-width="3" />
<line x1="408.00" y1="310.00" x2="414.86" y2="310.00" stroke="#0B1F3A" stroke-width="3" />
<line x1="414.86" y1="310.00" x2="421.71" y2="310.00" stroke="#0B1F3A" stroke-width="3" />
<line x1="421.71" y1="310.00" x2="442.29" y2="310.00" stroke="#0B1F3A" stroke-width="3" />
<line x1="442.29" y1="310.00" x2="449.14" y2="310.00" stroke="#0B1F3A" stroke-width="3" />
<line x1="449.14" y1="310.00" x2="456.00" y2="310.00" stroke="#0B1F3A" stroke-width="3" />
<line x1="456.00" y1="310.00" x2="462.86" y2="310.00" stroke="#0B1F3A" stroke-width="3" />
<line x1="462.86" y1="310.00" x2="469.71" y2="310.00" stroke="#0B1F3A" stroke-width="3" />
<line x1="469.71" y1="310.00" x2="490.29" y2="310.00" stroke="#0B1F3A" stroke-width="3" />
<line x1="490.29" y1="310.00" x2="497.14" y2="310.00" stroke="#0B1F3A" stroke-width="3" />
<line x1="497.14" y1="310.00" x2="504.00" y2="310.00" stroke="#0B1F3A" stroke-width="3" />
<line x1="504.00" y1="310.00" x2="510.86" y2="310.00" stroke="#0B1F3A" stroke-width="3" />
<line x1="510.86" y1="310.00" x2="517.71" y2="310.00" stroke="#0B1F3A" stroke-width="3" />
<line x1="517.71" y1="310.00" x2="538.29" y2="310.00" stroke="#0B1F3A" stroke-width="3" />
<line x1="538.29" y1="310.00" x2="545.14" y2="310.00" stroke="#0B1F3A" stroke-width="3" />
<line x1="545.14" y1="310.00" x2="552.00" y2="310.00" stroke="#0B1F3A" stroke-width="3" />
<line x1="552.00" y1="310.00" x2="558.86" y2="310.00" stroke="#0B1F3A" stroke-width="3" />
<circle cx="318.86" cy="310.00" r="3.50" fill="#0B1F3A" stroke="white" stroke-width="1" />
<circle cx="325.71" cy="310.00" r="3.50" fill="#0B1F3A" stroke="white" stroke-width="1" />
<circle cx="346.29" cy="310.00" r="3.50" fill="#0B1F3A" stroke="white" stroke-width="1" />
<circle cx="353.14" cy="310.00" r="3.50" fill="#0B1F3A" stroke="white" stroke-width="1" />
<circle cx="360.00" cy="310.00" r="3.50" fill="#0B1F3A" stroke="white" stroke-width="1" />
<circle cx="366.86" cy="310.00" r="3.50" fill="#0B1F3A" stroke="white" stroke-width="1" />
<circle cx="373.71" cy="310.00" r="3.50" fill="#0B1F3A" stroke="white" stroke-width="1" />
<circle cx="401.14" cy="310.00" r="3.50" fill="#0B1F3A" stroke="white" stroke-width="1" />
<circle cx="408.00" cy="310.00" r="3.50" fill="#0B1F3A" stroke="white" stroke-width="1" />
<circle cx="414.86" cy="310.00" r="3.50" fill="#0B1F3A" stroke="white" stroke-width="1" />
<circle cx="421.71" cy="310.00" r="3.50" fill="#0B1F3A" stroke="white" stroke-width="1" />
<circle cx="442.29" cy="310.00" r="3.50" fill="#0B1F3A" stroke="white" stroke-width="1" />
<circle cx="449.14" cy="310.00" r="3.50" fill="#0B1F3A" stroke="white" stroke-width="1" />
<circle cx="456.00" cy="310.00" r="3.50" fill="#0B1F3A" stroke="white" stroke-width="1" />
<circle cx="462.86" cy="310.00" r="3.50" fill="#0B1F3A" stroke="white" stroke-width="1" />
<circle cx="469.71" cy="310.00" r="3.50" fill="#0B1F3A" stroke="white" stroke-width="1" />
<circle cx="490.29" cy="310.00" r="3.50" fill="#0B1F3A" stroke="white" stroke-width="1" />
<circle cx="497.14" cy="310.00" r="3.50" fill="#0B1F3A" stroke="white" stroke-width="1" />
<circle cx="504.00" cy="310.00" r="3.50" fill="#0B1F3A" stroke="white" stroke-width="1" />
<circle cx="510.86" cy="310.00" r="3.50" fill="#0B1F3A" stroke="white" stroke-width="1" />
<circle cx="517.71" cy="310.00" r="3.50" fill="#0B1F3A" stroke="white" stroke-width="1" />
<circle cx="538.29" cy="310.00" r="3.50" fill="#0B1F3A" stroke="white" stroke-width="1" />
<circle cx="545.14" cy="310.00" r="3.50" fill="#0B1F3A" stroke="white" stroke-width="1" />
<circle cx="552.00" cy="310.00" r="3.50" fill="#0B1F3A" stroke="white" stroke-width="1" />
<circle cx="558.86" cy="310.00" r="3.50" fill="#0B1F3A" stroke="white" stroke-width="1" />
<line x1="120.00" y1="100.00" x2="120.00" y2="500.00" stroke="#7A7F87" stroke-width="1" />
<text x="122.00" y="112.00" fill="#0B1F3A" font-family="DejaVu Sans, Arial, sans-serif" font-size="15" text-anchor="start" dominant-baseline="alphabetic">2025-12</text>
<line x1="456.00" y1="100.00" x2="456.00" y2="500.00" stroke="#7A7F87" stroke-width="1" />
<text x="458.00" y="112.00" fill="#0B1F3A" font-family="DejaVu Sans, Arial, sans-serif" font-size="15" text-anchor="start" dominant-baseline="alphabetic">2026-01</text>
<line x1="792.00" y1="100.00" x2="792.00" y2="500.00" stroke="#7A7F87" stroke-width="1" />
<text x="794.00" y="112.00" fill="#0B1F3A" font-family="DejaVu Sans, Arial, sans-serif" font-size="15" text-anchor="start" dominant-baseline="alphabetic">2026-03</text>
<line x1="1080.00" y1="100.00" x2="1080.00" y2="500.00" stroke="#7A7F87" stroke-width="1" />
<text x="1082.00" y="112.00" fill="#0B1F3A" font-family="DejaVu Sans, Arial, sans-serif" font-size="15" text-anchor="start" dominant-baseline="alphabetic">2026-04</text>
<rect x="1100.00" y="100.00" width="16.00" height="16.00" fill="#D9DEE6" stroke="#C7CDD6" stroke-width="1" />
<text x="1124.00" y="108.00" fill="#30343A" font-family="DejaVu Sans, Arial, sans-serif" font-size="15" text-anchor="start" dominant-baseline="alphabetic">Target range after meeting</text>
<line x1="1100.00" y1="134.00" x2="1116.00" y2="134.00" stroke="#0B1F3A" stroke-width="3" />
<circle cx="1108.00" cy="134.00" r="3.50" fill="#0B1F3A" stroke="white" stroke-width="1" />
<text x="1124.00" y="134.00" fill="#30343A" font-family="DejaVu Sans, Arial, sans-serif" font-size="15" text-anchor="start" dominant-baseline="alphabetic">EFFR</text>
<text x="1100.00" y="164.00" fill="#4A4F57" font-family="DejaVu Sans, Arial, sans-serif" font-size="15" text-anchor="start" dominant-baseline="alphabetic">NY Fed data are partial in this build.</text>
<text x="120.00" y="552.00" fill="#4A4F57" font-family="DejaVu Sans, Arial, sans-serif" font-size="15" text-anchor="start" dominant-baseline="alphabetic">The chart is policy-rate context, not a forecast comparison.</text>
</svg>